<?xml version="1.0" standalone="no"?>
<!DOCTYPE svg PUBLIC "-//W3C//DTD SVG 20010904//EN"
 "http://www.w3.org/TR/2001/REC-SVG-20010904/DTD/svg10.dtd">
<svg version="1.0" xmlns="http://www.w3.org/2000/svg"
 width="160.000000pt" height="160.000000pt" viewBox="0 0 160.000000 160.000000"
 preserveAspectRatio="xMidYMid meet">
<metadata>
Created by potrace 1.14, written by Peter Selinger 2001-2017
</metadata>
<g transform="translate(0.000000,160.000000) scale(0.100000,-0.100000)"
fill="#000000" stroke="none">
<path d="M158 1528 c16 -16 16 -115 0 -121 -7 -3 5 -6 27 -6 27 0 35 2 26 8
-14 9 -17 75 -5 113 4 15 -1 18 -27 18 -26 0 -30 -3 -21 -12z"/>
<path d="M238 1528 c11 -15 11 -97 -1 -115 -6 -9 -1 -13 15 -13 21 0 23 4 20
48 l-3 47 36 -53 c20 -29 40 -50 45 -47 6 4 10 32 10 64 0 31 5 62 12 69 9 9
4 12 -23 12 -18 0 -29 -4 -24 -8 6 -4 12 -23 13 -42 l2 -35 -30 35 c-16 19
-30 38 -30 43 0 4 -12 7 -26 7 -20 0 -24 -3 -16 -12z"/>
<path d="M402 1528 c-21 -21 -13 -47 18 -63 28 -15 38 -34 24 -48 -10 -9 -34
4 -34 19 0 8 -4 14 -10 14 -5 0 -10 -11 -10 -25 0 -22 4 -25 34 -25 38 0 69
23 64 48 -2 8 -18 22 -35 31 -18 9 -33 22 -33 29 0 18 37 15 44 -4 8 -20 19
-11 21 16 1 17 -5 20 -35 20 -20 0 -41 -5 -48 -12z"/>
<path d="M515 1470 c0 -70 0 -70 28 -70 15 0 27 5 27 11 0 5 -4 7 -10 4 -5 -3
-10 3 -10 13 0 13 9 22 25 26 33 8 49 39 35 66 -8 15 -21 20 -53 20 l-42 0 0
-70z m70 25 c0 -11 -8 -21 -17 -23 -14 -3 -18 3 -18 23 0 20 4 26 18 23 9 -2
17 -12 17 -23z"/>
<path d="M638 1528 c7 -7 12 -33 12 -58 0 -25 -5 -51 -12 -58 -9 -9 -5 -12 20
-12 30 0 42 12 23 24 -10 6 -7 89 4 106 4 6 -6 10 -26 10 -26 0 -30 -3 -21
-12z"/>
<path d="M710 1530 c0 -5 4 -10 8 -10 10 0 9 -91 -2 -108 -5 -8 2 -12 25 -12
26 0 30 3 21 12 -13 13 -16 48 -4 48 4 0 13 -13 20 -29 12 -26 44 -46 56 -34
3 3 -4 18 -16 33 -19 26 -19 29 -4 53 16 23 16 26 1 41 -18 18 -105 23 -105 6z
m75 -20 c8 -13 -14 -42 -25 -35 -5 3 -8 14 -7 25 1 21 21 27 32 10z"/>
<path d="M857 1528 c11 -19 11 -101 -1 -116 -7 -11 1 -13 45 -10 47 3 54 6 57
26 4 25 -13 30 -22 7 -8 -23 -46 -19 -46 5 0 11 5 21 10 21 6 1 14 2 19 3 15
2 25 16 13 17 -7 1 -17 2 -24 3 -6 0 -13 7 -15 13 -7 19 27 29 38 12 8 -12 11
-12 19 1 17 26 11 30 -46 30 -42 0 -53 -3 -47 -12z"/>
<path d="M988 1523 c10 -21 9 -93 -2 -111 -11 -19 79 -16 98 4 25 24 31 64 15
93 -12 22 -23 26 -67 29 -49 3 -52 1 -44 -15z m84 -28 c15 -33 -3 -75 -32 -75
-18 0 -20 6 -18 50 2 40 6 50 21 50 9 0 23 -11 29 -25z"/>
<path d="M1178 1479 c3 -45 1 -64 -9 -70 -9 -6 5 -8 40 -7 59 3 81 21 66 54
-5 11 -9 33 -9 49 -1 28 -3 30 -47 33 l-45 3 4 -62z m59 17 c-4 -9 -11 -16
-17 -16 -11 0 -14 33 -3 44 11 10 26 -11 20 -28z m13 -60 c0 -15 -24 -28 -34
-19 -3 4 -6 17 -6 30 0 21 3 22 20 13 11 -6 20 -17 20 -24z"/>
<path d="M1315 1504 c27 -39 33 -89 13 -97 -7 -3 5 -6 27 -6 30 -1 36 2 27 11
-7 7 -12 20 -12 29 0 20 32 79 43 79 4 0 7 5 7 10 0 6 -12 10 -26 10 -14 0
-23 -4 -20 -9 7 -11 -3 -41 -14 -41 -15 0 -21 33 -8 42 8 5 -1 8 -24 8 l-37 0
24 -36z"/>
<path d="M762 1215 c0 -16 2 -22 5 -12 2 9 2 23 0 30 -3 6 -5 -1 -5 -18z"/>
<path d="M603 1130 c-64 -7 -87 -26 -77 -63 3 -15 9 -27 13 -27 19 0 28 -56
30 -190 2 -80 4 -162 6 -183 2 -34 -2 -40 -46 -74 -27 -20 -49 -39 -49 -40 0
-5 50 23 78 43 21 16 22 16 22 -11 0 -16 -7 -36 -16 -46 -19 -21 -21 -77 -5
-108 40 -74 285 -102 415 -47 54 22 86 59 86 97 0 19 -6 44 -14 55 -11 16 -13
57 -10 209 l4 190 36 31 c20 17 55 41 80 53 24 12 44 27 44 33 0 5 6 8 13 5 8
-3 14 1 14 9 0 19 -3 18 -45 -15 -20 -16 -53 -37 -72 -47 -19 -11 -39 -25 -43
-32 -5 -7 -12 -10 -18 -7 -15 10 -10 41 11 68 36 46 21 79 -43 93 -35 8 -356
11 -414 4z"/>
<path d="M1270 1026 c0 -3 9 -10 20 -16 11 -6 20 -8 20 -6 0 3 -9 10 -20 16
-11 6 -20 8 -20 6z"/>
<path d="M1325 966 c10 -14 19 -26 22 -26 7 0 -17 39 -28 46 -6 3 -3 -5 6 -20z"/>
<path d="M1350 925 c0 -5 5 -17 10 -25 5 -8 10 -10 10 -5 0 6 -5 17 -10 25 -5
8 -10 11 -10 5z"/>
<path d="M1371 864 c0 -11 3 -14 6 -6 3 7 2 16 -1 19 -3 4 -6 -2 -5 -13z"/>
<path d="M1275 830 c10 -11 20 -20 23 -20 3 0 -3 9 -13 20 -10 11 -20 20 -23
20 -3 0 3 -9 13 -20z"/>
<path d="M1385 797 c4 -36 2 -46 -8 -42 -6 4 -4 0 6 -8 9 -8 17 -20 17 -27 0
-7 2 -11 5 -9 2 3 -2 34 -10 70 -13 57 -15 59 -10 16z"/>
<path d="M1316 797 c3 -10 9 -15 12 -12 3 3 0 11 -7 18 -10 9 -11 8 -5 -6z"/>
<path d="M360 145 c0 -14 5 -25 10 -25 6 0 10 7 10 15 0 21 20 19 21 -2 4 -54
-1 -87 -13 -94 -8 -6 1 -9 27 -9 30 0 36 3 27 12 -14 14 -16 108 -3 108 5 0
11 -7 15 -15 9 -24 26 -17 26 10 0 24 -3 25 -60 25 -57 0 -60 -1 -60 -25z"/>
<path d="M490 160 c0 -5 4 -10 8 -10 11 0 9 -90 -1 -107 -6 -10 1 -13 24 -13
25 0 29 3 20 14 -17 20 -3 46 25 46 26 0 30 -11 14 -41 -10 -17 -7 -19 21 -19
24 0 29 3 22 13 -11 13 -10 97 1 116 5 7 -3 11 -23 11 -17 0 -31 -4 -31 -10 0
-5 4 -10 9 -10 6 0 9 -9 8 -20 -1 -15 -8 -20 -29 -20 -21 0 -26 5 -25 20 1 11
5 20 9 20 4 0 8 5 8 10 0 6 -13 10 -30 10 -16 0 -30 -4 -30 -10z"/>
<path d="M650 160 c0 -5 4 -10 10 -10 12 0 10 -91 -3 -108 -7 -9 -1 -12 22
-12 23 0 30 3 24 13 -11 18 -12 37 -2 37 5 0 15 -11 21 -25 8 -17 19 -25 36
-25 l26 0 -28 28 c-24 26 -25 30 -11 42 18 15 20 41 3 58 -14 14 -98 16 -98 2z
m75 -36 c0 -22 -30 -26 -31 -4 -1 22 6 32 19 27 7 -2 12 -12 12 -23z"/>
<path d="M790 160 c0 -5 5 -10 10 -10 11 0 8 -89 -4 -108 -5 -8 19 -11 85 -11
79 0 89 2 72 14 -17 13 -17 14 7 23 31 12 48 -1 30 -23 -11 -13 -3 -15 73 -15
81 0 87 2 106 26 46 58 12 114 -69 114 -28 0 -50 -4 -50 -10 0 -5 5 -10 11
-10 6 0 9 -21 7 -52 -4 -76 -27 -71 -53 10 -26 83 -46 84 -76 2 -22 -61 -39
-85 -39 -56 0 9 -4 16 -10 16 -5 0 -10 -4 -10 -10 0 -5 -11 -10 -24 -10 -19 0
-24 5 -23 20 1 14 8 20 24 20 13 0 23 5 23 10 0 6 -9 10 -20 10 -13 0 -20 7
-20 20 0 25 25 26 35 3 7 -17 8 -16 15 2 14 33 12 35 -45 35 -30 0 -55 -4 -55
-10z m358 -42 c16 -35 1 -68 -32 -68 -19 0 -22 5 -20 28 1 15 2 37 3 50 1 32
32 25 49 -10z m-158 -20 c0 -5 -7 -8 -15 -8 -17 0 -18 2 -9 25 5 13 8 14 15 3
5 -7 9 -16 9 -20z"/>
<path d="M1216 149 c-18 -27 -13 -41 24 -63 17 -9 30 -21 30 -27 0 -15 -38
-10 -48 7 -11 20 -25 3 -16 -20 9 -22 67 -21 87 2 20 21 11 37 -37 66 -26 17
-27 19 -11 29 13 7 20 6 27 -7 13 -24 28 -19 28 9 0 22 -4 25 -34 25 -24 0
-39 -7 -50 -21z"/>
</g>
</svg>
